<svg width="416" height="416" fill="none" xmlns="http://www.w3.org/2000/svg"><g clip-path="url(#a)"><path d="M393.812 174.276a9.449 9.449 0 0 1-9.449-9.449c0-73.97-57.909-134.105-128.832-134.105a9.449 9.449 0 1 1 0-18.866c81.438 0 147.698 68.668 147.698 153.032a9.45 9.45 0 0 1-9.417 9.388Z" fill="#8B4184" fill-opacity=".1"/><path d="M334.379 174.276a9.417 9.417 0 0 1-9.418-9.449 68.911 68.911 0 0 0-69.43-68.21 9.416 9.416 0 0 1-9.418-9.418 9.42 9.42 0 0 1 9.418-9.418 87.748 87.748 0 0 1 88.388 87.046 9.422 9.422 0 0 1-9.54 9.449Z" fill="#8B4184" fill-opacity=".1"/><path d="M276.957 172.66a9.14 9.14 0 0 1-6.095-9.478 13.273 13.273 0 0 0-4.084-9.681 13.267 13.267 0 0 0-9.845-3.669 8.476 8.476 0 0 1-8.077-6.37A9.147 9.147 0 0 1 258 131.636c18.013 1.433 31.575 16.215 30.234 32.948a8.804 8.804 0 0 1-7.325 8.307 8.804 8.804 0 0 1-3.952-.231Z" fill="#8B4184"/><path d="M208.015 416A208.165 208.165 0 0 0 416 207.985a6.614 6.614 0 0 0-6.675-6.553H220.664V6.797A6.71 6.71 0 0 0 214.263.06h-6.248a208.016 208.016 0 1 0 0 416V416Zm181.073-182.322a181.15 181.15 0 0 1-31.454 79.244 6.708 6.708 0 0 1-9.144 1.707 127.22 127.22 0 0 1-57.147-80.677 6.712 6.712 0 0 1 1.366-5.608 6.702 6.702 0 0 1 5.218-2.468h84.394a6.702 6.702 0 0 1 6.767 7.802Zm-161.81-7.68h31.606a6.738 6.738 0 0 1 6.614 5.729 152.8 152.8 0 0 0 22.003 57.186 152.803 152.803 0 0 0 42.702 43.942 6.656 6.656 0 0 1 2.043 2.196 6.662 6.662 0 0 1 .407 5.83 6.662 6.662 0 0 1-1.718 2.458A181.988 181.988 0 0 1 228.04 389.85a6.672 6.672 0 0 1-7.376-6.767V232.672a6.676 6.676 0 0 1 6.614-6.674Zm-193.69 0h86.009a6.668 6.668 0 0 1 6.547 5.113c.234.972.247 1.985.037 2.963a127.49 127.49 0 0 1-58.336 81.408 6.646 6.646 0 0 1-8.93-1.737 181.434 181.434 0 0 1-31.942-80.067 6.705 6.705 0 0 1 6.614-7.68ZM188.02 389.85a182.387 182.387 0 0 1-102.194-45.718 6.675 6.675 0 0 1 .762-10.515 152.596 152.596 0 0 0 65.529-101.707 6.769 6.769 0 0 1 6.614-5.73h30.051a6.708 6.708 0 0 1 6.706 6.675v150.411a6.71 6.71 0 0 1-2.271 4.951 6.7 6.7 0 0 1-5.197 1.633Zm7.468-356.933v161.292a6.702 6.702 0 0 1-6.706 6.674h-28.497a6.671 6.671 0 0 1-6.675-6.095 152.107 152.107 0 0 0-65.742-113.38 6.674 6.674 0 0 1-.67-10.546 182.108 182.108 0 0 1 100.822-44.59 6.703 6.703 0 0 1 6.876 3.909c.388.86.589 1.792.592 2.736ZM69.034 99.116a127.036 127.036 0 0 1 59.25 94.483 6.59 6.59 0 0 1-3.954 6.754 6.572 6.572 0 0 1-2.721.53h-89.21a6.697 6.697 0 0 1-4.93-2.196 6.709 6.709 0 0 1-1.715-5.119 181.499 181.499 0 0 1 34.288-92.806 6.704 6.704 0 0 1 8.992-1.646Z" fill="#F5851F" fill-opacity=".1"/></g><defs><clipPath id="a"><path fill="#fff" d="M0 0h416v416H0z"/></clipPath></defs></svg>