<svg width="416" height="416" viewBox="0 0 416 416" fill="none" xmlns="http://www.w3.org/2000/svg">
<g clip-path="url(#clip0_62_5)">
<path d="M393.812 174.276C391.306 174.276 388.903 173.28 387.131 171.508C385.359 169.736 384.363 167.333 384.363 164.827C384.363 90.8562 326.454 30.7223 255.531 30.7223C254.247 30.7953 252.962 30.6054 251.754 30.1644C250.546 29.7233 249.441 29.0403 248.506 28.1572C247.571 27.2741 246.827 26.2094 246.318 25.0285C245.809 23.8475 245.546 22.5751 245.546 21.2892C245.546 20.0032 245.809 18.7308 246.318 17.5499C246.827 16.3689 247.571 15.3043 248.506 14.4212C249.441 13.5381 250.546 12.8551 251.754 12.414C252.962 11.973 254.247 11.7831 255.531 11.8561C336.969 11.8561 403.229 80.524 403.229 164.888C403.213 167.378 402.215 169.761 400.452 171.519C398.688 173.277 396.302 174.268 393.812 174.276Z" fill="#8B4184" fill-opacity="0.1"/>
<path d="M334.379 174.276C333.139 174.276 331.912 174.031 330.768 173.556C329.623 173.081 328.584 172.384 327.709 171.506C326.834 170.629 326.141 169.587 325.669 168.441C325.198 167.295 324.957 166.067 324.961 164.827C324.776 146.582 317.363 129.156 304.347 116.369C291.332 103.582 273.776 96.4785 255.531 96.6166C253.033 96.6166 250.638 95.6244 248.872 93.8582C247.106 92.092 246.113 89.6965 246.113 87.1988C246.113 84.701 247.106 82.3055 248.872 80.5393C250.638 78.7732 253.033 77.7809 255.531 77.7809C278.793 77.6105 301.17 86.6839 317.745 103.007C334.319 119.329 343.733 141.566 343.919 164.827C343.923 166.077 343.678 167.315 343.199 168.469C342.72 169.623 342.016 170.671 341.128 171.55C340.24 172.429 339.186 173.123 338.027 173.591C336.869 174.059 335.628 174.292 334.379 174.276Z" fill="#8B4184" fill-opacity="0.1"/>
<path d="M276.957 172.66C275.029 171.988 273.38 170.69 272.276 168.972C271.171 167.254 270.673 165.215 270.862 163.182C270.876 161.375 270.522 159.584 269.82 157.92C269.117 156.255 268.082 154.751 266.778 153.501C265.473 152.251 263.927 151.281 262.234 150.65C260.542 150.019 258.737 149.741 256.933 149.832C255.074 149.803 253.277 149.164 251.817 148.013C250.358 146.862 249.317 145.263 248.856 143.462C248.425 142.062 248.337 140.578 248.599 139.136C248.86 137.695 249.465 136.337 250.361 135.178C251.258 134.019 252.419 133.092 253.749 132.476C255.078 131.859 256.536 131.571 258 131.636C276.013 133.069 289.575 147.851 288.234 164.584C288.177 165.919 287.817 167.224 287.181 168.399C286.545 169.575 285.65 170.59 284.563 171.368C283.476 172.147 282.227 172.668 280.909 172.891C279.591 173.115 278.24 173.036 276.957 172.66Z" fill="#8B4184"/>
<path d="M208.015 416C263.167 415.952 316.045 394.019 355.04 355.018C394.035 316.018 415.96 263.136 416 207.985C415.992 207.116 415.813 206.258 415.473 205.458C415.134 204.659 414.64 203.934 414.02 203.326C413.4 202.717 412.666 202.237 411.861 201.912C411.055 201.587 410.194 201.424 409.325 201.432H220.664V25.6019V6.79672C220.673 5.06468 220.012 3.3961 218.819 2.1405C217.626 0.884894 215.994 0.139689 214.263 0.0609863C212.252 0.0609863 210.24 0.0609863 208.015 0.0609863C180.488 -0.272232 153.169 4.86171 127.641 15.1652C102.113 25.4687 78.8846 40.7368 59.3013 60.0845C39.718 79.4321 24.1699 102.474 13.5581 127.876C2.94636 153.277 -2.51788 180.532 -2.51788 208.061C-2.51788 235.59 2.94636 262.845 13.5581 288.246C24.1699 313.648 39.718 336.69 59.3013 356.038C78.8846 375.385 102.113 390.653 127.641 400.957C153.169 411.26 180.488 416.394 208.015 416.061V416ZM389.088 233.678C385.057 262.219 374.274 289.386 357.634 312.922C356.626 314.334 355.111 315.3 353.406 315.619C351.701 315.937 349.939 315.582 348.49 314.629C334.063 305.676 321.574 293.925 311.759 280.069C301.944 266.213 295.003 250.533 291.343 233.952C291.139 232.975 291.156 231.964 291.392 230.994C291.628 230.024 292.078 229.118 292.709 228.344C293.34 227.57 294.136 226.947 295.039 226.52C295.941 226.093 296.928 225.873 297.927 225.876H382.321C383.307 225.853 384.286 226.049 385.188 226.448C386.09 226.848 386.893 227.441 387.539 228.186C388.185 228.931 388.659 229.81 388.926 230.759C389.194 231.708 389.249 232.705 389.088 233.678ZM227.278 225.998H258.884C260.488 226.009 262.035 226.592 263.248 227.642C264.46 228.693 265.258 230.141 265.498 231.727C268.896 252.08 276.381 271.532 287.501 288.913C298.622 306.293 313.148 321.241 330.203 332.855C331.042 333.422 331.741 334.173 332.246 335.051C332.752 335.928 333.052 336.909 333.122 337.919C333.193 338.929 333.032 339.942 332.653 340.881C332.274 341.821 331.687 342.661 330.935 343.339C302.435 369.361 266.402 385.648 228.04 389.85C227.098 389.949 226.146 389.847 225.247 389.551C224.348 389.255 223.523 388.77 222.825 388.13C222.128 387.491 221.574 386.71 221.202 385.839C220.829 384.969 220.646 384.03 220.664 383.083V232.672C220.664 230.913 221.359 229.224 222.597 227.974C223.836 226.724 225.518 226.014 227.278 225.998ZM33.5872 225.998H119.597C120.598 225.989 121.587 226.205 122.493 226.631C123.398 227.056 124.197 227.679 124.829 228.455C125.461 229.23 125.91 230.138 126.144 231.111C126.378 232.083 126.391 233.096 126.181 234.074C122.456 250.879 115.367 266.755 105.341 280.746C95.3155 294.737 82.5604 306.553 67.845 315.482C66.4147 316.383 64.695 316.704 63.0359 316.382C61.3768 316.059 59.9031 315.116 58.9148 313.745C41.9901 290.01 31.0338 262.546 26.9734 233.678C26.8336 232.727 26.8999 231.757 27.1678 230.834C27.4357 229.911 27.8991 229.056 28.5263 228.327C29.1536 227.599 29.9301 227.014 30.8033 226.612C31.6765 226.21 32.6259 226 33.5872 225.998ZM188.021 389.85C150.006 385.701 114.257 369.708 85.8272 344.132C85.0711 343.452 84.4806 342.607 84.1006 341.664C83.7206 340.72 83.5613 339.702 83.6348 338.688C83.7083 337.673 84.0127 336.689 84.5247 335.81C85.0368 334.931 85.7429 334.181 86.5892 333.617C103.868 322.027 118.595 307.025 129.863 289.535C141.132 272.045 148.705 252.435 152.118 231.91C152.363 230.327 153.163 228.882 154.374 227.832C155.585 226.783 157.129 226.198 158.732 226.18H188.783C190.556 226.18 192.257 226.883 193.514 228.134C194.771 229.384 195.481 231.082 195.489 232.855V383.266C195.478 384.204 195.27 385.13 194.879 385.983C194.488 386.836 193.922 387.597 193.218 388.217C192.514 388.838 191.688 389.304 190.793 389.585C189.898 389.866 188.954 389.956 188.021 389.85ZM195.489 32.9167V194.209C195.481 195.982 194.771 197.679 193.514 198.93C192.257 200.181 190.556 200.883 188.783 200.883H160.286C158.612 200.89 156.996 200.266 155.76 199.137C154.523 198.008 153.757 196.456 153.611 194.788C151.797 172.184 144.952 150.272 133.577 130.655C122.202 111.037 106.585 94.2114 87.8693 81.4079C87.0236 80.8368 86.3201 80.0794 85.8129 79.1938C85.3056 78.3083 85.0082 77.3183 84.9435 76.2999C84.8787 75.2814 85.0483 74.2617 85.4393 73.3191C85.8303 72.3764 86.4322 71.536 87.1988 70.8624C115.392 45.9393 150.614 30.362 188.021 26.2724C188.959 26.1652 189.908 26.257 190.807 26.5418C191.707 26.8265 192.536 27.2978 193.241 27.9249C193.945 28.552 194.51 29.3208 194.897 30.181C195.285 31.0411 195.486 31.9734 195.489 32.9167ZM69.0336 99.1159C85.4461 109.32 99.3139 123.135 109.581 139.508C119.849 155.881 126.245 174.381 128.284 193.599C128.383 194.528 128.284 195.468 127.992 196.356C127.701 197.244 127.223 198.06 126.592 198.749C125.96 199.438 125.189 199.985 124.33 200.353C123.471 200.721 122.543 200.902 121.609 200.883H32.3986C31.4694 200.879 30.5514 200.681 29.7027 200.303C28.854 199.925 28.0931 199.374 27.4684 198.687C26.8437 197.999 26.3687 197.189 26.0736 196.308C25.7785 195.427 25.6698 194.494 25.7543 193.568C28.3687 160.055 40.2392 127.925 60.0425 100.762C61.0551 99.4011 62.5458 98.4748 64.2142 98.1694C65.8825 97.864 67.6047 98.2022 69.0336 99.1159Z" fill="#F5851F" fill-opacity="0.1"/>
</g>
<defs>
<clipPath id="clip0_62_5">
<rect width="416" height="416" fill="white"/>
</clipPath>
</defs>
</svg>
