<svg width="151" height="52" fill="none" xmlns="http://www.w3.org/2000/svg"><g clip-path="url(#a)"><path d="M46.566 17.675v.015c0 .414-.34.754-.754.754h-3.68a2.46 2.46 0 0 0-.873.163 2.274 2.274 0 0 0-.71.428c-.206.192-.354.4-.473.65a1.836 1.836 0 0 0-.177.784c0 .28.06.532.177.783.119.237.267.459.474.636.206.192.443.325.709.429.266.103.562.162.872.162h1.183a4.073 4.073 0 0 1 2.764 1.05c.354.325.62.694.828 1.138.206.429.31.887.31 1.375 0 .487-.104.946-.31 1.374a3.465 3.465 0 0 1-.828 1.124 3.78 3.78 0 0 1-1.242.754c-.473.192-.975.28-1.522.28h-3.71a.757.757 0 0 1-.754-.754c0-.413.34-.753.753-.753h3.71c.311 0 .592-.06.873-.163.266-.103.502-.251.71-.429.191-.177.354-.399.472-.65s.178-.517.178-.783c0-.267-.06-.547-.178-.784a2.296 2.296 0 0 0-.473-.65 1.901 1.901 0 0 0-.71-.429 2.407 2.407 0 0 0-.871-.162H42.13a3.963 3.963 0 0 1-1.508-.281 3.782 3.782 0 0 1-1.241-.754 3.51 3.51 0 0 1-.843-1.124 3.12 3.12 0 0 1-.31-1.374c0-.503.103-.961.31-1.39.207-.428.488-.798.843-1.123a4.087 4.087 0 0 1 1.241-.769c.473-.177.976-.28 1.508-.28h3.68c.415 0 .755.34.755.753Zm11.78 4.568c.459 0 .828.37.828.828v.354c0 .459-.37.828-.828.828a.826.826 0 0 1-.827-.828v-.355c0-.458.37-.827.827-.827Zm13.171-5.307c.458 0 .827.37.827.828v10.288h6.697c.413 0 .753.34.753.754s-.34.753-.754.753h-7.775a.593.593 0 0 1-.59-.59V17.763a.849.849 0 0 1 .842-.828Zm20.664 5.307c.459 0 .828.37.828.828v.354c0 .459-.37.828-.828.828a.826.826 0 0 1-.828-.828v-.355c-.014-.458.37-.827.828-.827Zm12.919 2.823v3.74a.842.842 0 1 1-1.685 0v-7.332c0-.636.133-1.227.399-1.788a4.83 4.83 0 0 1 1.079-1.464 5.39 5.39 0 0 1 1.611-.99 5.567 5.567 0 0 1 1.996-.37c.695 0 1.36.119 1.966.37a5.085 5.085 0 0 1 1.611.99c.458.414.813.902 1.079 1.463.266.562.399 1.154.399 1.79v7.345a.826.826 0 0 1-.828.828.826.826 0 0 1-.827-.828v-3.754h-6.8Zm6.815-3.607c0-.428-.089-.828-.267-1.197a3.202 3.202 0 0 0-.739-.99 3.646 3.646 0 0 0-1.079-.665 3.6 3.6 0 0 0-1.33-.237 3.6 3.6 0 0 0-1.33.236 3.479 3.479 0 0 0-1.079.666 3.04 3.04 0 0 0-.739.99 2.77 2.77 0 0 0-.267 1.197v2.1h6.83v-2.1Zm15.476.784c.458 0 .828.37.828.828v.354c0 .459-.37.828-.828.828a.827.827 0 0 1-.828-.828v-.355c0-.458.37-.827.828-.827Zm9.57-1.656c0-.488.104-.946.311-1.375a3.63 3.63 0 0 1 .828-1.123 4.074 4.074 0 0 1 1.241-.769c.473-.177.976-.28 1.508-.28a3.99 3.99 0 0 1 1.729.369c.296.133.577.31.828.503a.844.844 0 0 0 1.035 0c.251-.193.517-.355.828-.503a4.216 4.216 0 0 1 1.729-.37 4.074 4.074 0 0 1 2.749 1.05c.355.325.636.695.843 1.123.207.429.31.887.31 1.375v8.425a.826.826 0 0 1-.827.828h-.015a.827.827 0 0 1-.828-.828v-8.425c0-.28-.059-.547-.177-.783a1.845 1.845 0 0 0-.473-.636 2.46 2.46 0 0 0-.71-.429 2.328 2.328 0 0 0-.857-.162c-.311 0-.591.059-.872.162a2.275 2.275 0 0 0-.71.429c-.207.177-.369.4-.473.636a1.839 1.839 0 0 0-.177.783v8.425c0 .459-.37.828-.828.828h-.015a.826.826 0 0 1-.827-.828v-8.425c0-.28-.06-.547-.178-.783a1.833 1.833 0 0 0-.473-.636 2.408 2.408 0 0 0-2.454-.429 2.27 2.27 0 0 0-.709.429c-.207.177-.355.4-.473.636a1.839 1.839 0 0 0-.177.783v8.425a.827.827 0 1 1-1.656 0v-8.425h-.03Zm-114.962.695a.53.53 0 0 1-.532-.532c0-4.154-3.252-7.539-7.229-7.539a.53.53 0 0 1-.532-.532.53.53 0 0 1 .532-.532c4.568 0 8.293 3.858 8.293 8.588 0 .31-.237.547-.532.547Z" fill="#894083"/><path d="M18.673 21.282a.53.53 0 0 1-.532-.532c0-2.114-1.744-3.829-3.903-3.829a.53.53 0 0 1-.532-.532.53.53 0 0 1 .532-.532c2.735 0 4.952 2.188 4.952 4.893a.509.509 0 0 1-.517.532Zm-3.223-.089c-.221-.059-.369-.295-.354-.532.03-.37-.296-.754-.784-.754a.488.488 0 0 1-.458-.355c-.103-.369.178-.694.503-.665 1.005.074 1.774.917 1.7 1.848-.015.31-.31.547-.606.458Z" fill="#894083"/><path d="M11.578 34.851c6.445 0 11.677-5.232 11.677-11.677a.375.375 0 0 0-.37-.37H12.303V12.93c.015 0-.015 0 0 0l.015-1.05a.389.389 0 0 0-.37-.383h-.354C5.132 11.497-.1 16.729-.1 23.174c0 6.445 5.233 11.677 11.678 11.677Zm10.17-10.243a10.165 10.165 0 0 1-1.774 4.449.376.376 0 0 1-.503.104 7.122 7.122 0 0 1-3.207-4.524.383.383 0 0 1 .369-.458h4.745c.222 0 .399.207.37.429Zm-9.091-.429h1.774c.192 0 .34.133.37.325a8.561 8.561 0 0 0 3.635 5.676.376.376 0 0 1 .045.592 10.204 10.204 0 0 1-5.78 2.601.37.37 0 0 1-.414-.37v-8.44a.38.38 0 0 1 .37-.384Zm-10.865 0h4.834c.236 0 .414.222.37.458a7.24 7.24 0 0 1-3.282 4.568.376.376 0 0 1-.503-.104 10.011 10.011 0 0 1-1.788-4.493.366.366 0 0 1 .37-.429Zm8.662 9.194a10.182 10.182 0 0 1-5.735-2.572.376.376 0 0 1 .044-.591 8.54 8.54 0 0 0 3.681-5.706.393.393 0 0 1 .37-.325h1.685c.207 0 .37.163.37.37v8.44c0 .236-.193.414-.415.384Zm.414-20.029v9.046c0 .207-.162.37-.37.37H8.903a.37.37 0 0 1-.37-.34 8.536 8.536 0 0 0-3.695-6.37.376.376 0 0 1-.044-.592 10.355 10.355 0 0 1 5.661-2.483.37.37 0 0 1 .414.37Zm-7.095 3.71A7.138 7.138 0 0 1 7.1 22.346a.37.37 0 0 1-.37.414H1.72a.377.377 0 0 1-.37-.414 10.225 10.225 0 0 1 1.922-5.218.403.403 0 0 1 .502-.074Z" fill="#FF8600"/></g><defs><clipPath id="a"><path fill="#fff" d="M0 0h151v52H0z"/></clipPath></defs></svg>